<?xml version="1.0" encoding="UTF-8"?>
<svg id="Layer_1" xmlns="http://www.w3.org/2000/svg" width="2.2786in" height=".7163in" viewBox="0 0 164.0597 51.5723">
  <defs>
    <style>
      .cls-1 {
        fill: #27aae1;
      }
    </style>
  </defs>
  <g>
    <path d="M32.0951,25.2742v-11.1096h-4.13l-1.1202,1.1202v14.6924h15.9417v-4.703h-10.6915Z"/>
    <path d="M39.4826,4.3714v4.703h7.7127v20.9029h5.3277V9.0744h7.6766v-4.703h-20.717Z"/>
    <path d="M62.879,4.3714v25.6059h5.2554V4.3714h-5.2554Z"/>
    <path d="M70.7775,4.3714v4.703h7.7179v20.9029h5.3225V9.0744h7.6818v-4.703h-20.7222Z"/>
    <path d="M108.6908,4.3714v15.7972c0,1.2235-.1342,2.2509-.4027,3.082-.2736.8363-.7434,1.461-1.4145,1.874-.6763.4182-1.652.6247-2.922.6247-1.2751,0-2.2612-.2065-2.9581-.6247-.697-.413-1.1719-1.0377-1.4145-1.874-.2427-.8312-.3665-1.874-.3665-3.1233V4.3714h-5.2554v16.3444c0,3.3091.8415,5.782,2.5193,7.4236,1.6778,1.6417,4.1661,2.4625,7.4753,2.4625,3.2833,0,5.7665-.8363,7.4546-2.4986,1.6933-1.6675,2.5348-4.192,2.5348-7.5682V4.3714h-5.2503Z"/>
    <path d="M135.8558,7.7476c-2.3386-2.2508-5.6374-3.3762-9.9016-3.3762h-7.6043v25.6059h7.5682c4.3571,0,7.6921-1.0841,9.9946-3.2524,2.3024-2.1682,3.4537-5.2864,3.4537-9.3492,0-4.1661-1.1719-7.372-3.5105-9.628ZM133.0474,22.0787c-.6866,1.1513-1.6778,1.9514-2.9787,2.4057-1.2958.4543-2.8652.6763-4.703.6763h-1.7604v-15.9779h2.2405c1.7139,0,3.1852.2375,4.4087.7176,1.2235.4749,2.1682,1.2958,2.829,2.4625.6608,1.1616.9912,2.7722.9912,4.8269,0,2.1063-.3459,3.7376-1.0274,4.8889Z"/>
    <path d="M160.1194,9.0744v-4.703h-17.1188v25.6059h17.1188v-4.703h-11.8634v-6.1021h11.1664v-4.6978h-11.1664v-5.4h11.8634Z"/>
  </g>
  <path d="M9.268,4.3695v4.703h7.7127v7.7076l5.3277-5.3277v-7.0829h-13.0404ZM16.9807,22.2626v7.7127h5.3277v-13.0404l-5.3277,5.3277Z"/>
  <g>
    <polygon points="16.9807 16.7801 16.9807 22.2626 9.268 29.9754 3.9403 29.9754 3.9403 8.9899 9.268 8.9899 9.268 24.4928 16.9807 16.7801"/>
    <polygon points="24.7076 9.0537 27.4179 9.0537 27.4179 11.826 22.3071 16.9368 22.3071 11.4543 24.7076 9.0537"/>
  </g>
  <polygon class="cls-1" points="32.1003 4.3714 32.1003 12.6365 29.4932 12.6365 29.4932 6.9784 23.8351 6.9784 23.8351 4.3714 32.1003 4.3714"/>
  <g>
    <path d="M58.6952,47.2028c-.852,0-1.5498-.2228-2.0927-.669-.5435-.4457-.8762-1.038-.9977-1.7761l1.0461-.2556c.0892.5677.3227.9997.6998,1.2957.3771.2964.8374.4442,1.3809.4442.3161,0,.5999-.061.8515-.1825s.4502-.2939.5964-.5173c.1457-.2228.2188-.4764.2188-.7603,0-.3-.0812-.5475-.2435-.7421s-.3872-.365-.6751-.5112c-.2879-.1457-.6226-.2919-1.0038-.4376-.4704-.1785-.8818-.3731-1.2347-.5843-.3529-.2107-.6267-.4643-.8213-.7603s-.2919-.6589-.2919-1.089.1049-.8112.3161-1.1434c.2107-.3327.5067-.5944.8883-.785.3811-.1906.8228-.2859,1.3259-.2859.5354,0,1.0098.1215,1.4237.365.4134.243.7461.6045.9977,1.0829l-.852.5228c-.1865-.3322-.4134-.5858-.6811-.7603s-.5762-.2617-.9246-.2617c-.2758,0-.5213.0529-.7361.1583-.2153.1054-.3832.2516-.5052.4381-.1215.1865-.1825.4013-.1825.6448,0,.2596.0731.4805.2193.663.1457.1825.3564.3428.6322.4805.2758.1381.6085.2798.9977.426.4951.1865.9206.3892,1.2775.6085.3569.2188.6347.4805.8334.7845s.2985.6796.2985,1.1253c0,.4789-.118.9044-.3529,1.2775-.2354.3736-.5596.6675-.9735.8823-.4134.2148-.8923.3222-1.4353.3222Z"/>
    <path d="M62.8802,47.0692v-8.4803h1.0345v8.4803h-1.0345ZM66.9683,47.0692l-1.9954-3.0904-1.1802,1.2654v-1.3259l2.7617-2.8469h1.3264l-2.1537,2.2142,2.4698,3.7836h-1.2286Z"/>
    <path d="M69.2435,39.9884v-1.3995h1.2165v1.3995h-1.2165ZM69.3408,47.0692v-5.9979h1.0219v5.9979h-1.0219Z"/>
    <path d="M75.3508,47.0692v-8.4803h2.5303c.6488,0,1.1802.0958,1.5941.2864.4134.1906.7219.4643.9246.8213s.304.7824.304,1.277c0,.7058-.2027,1.2639-.608,1.6733-.4058.4094-.9937.6509-1.7645.724-.1215.0081-.2677.0121-.4381.0121h-1.4721v3.6863h-1.0703ZM76.4211,42.4336h1.3506c.3731,0,.6977-.0484.9735-.1457s.4926-.2516.6509-.4623.2369-.4905.2369-.8394c0-.3569-.0786-.6388-.2369-.846-.1583-.2067-.3771-.3564-.6569-.4502-.2798-.0928-.6025-.1396-.9675-.1396h-1.3506v2.8832ZM80.0958,47.0692l-2.2026-3.8204,1.095-.1336,2.3362,3.954h-1.2286Z"/>
    <path d="M84.8162,47.1665c-.4704,0-.8823-.0792-1.2352-.2375-.3524-.1578-.6448-.3786-.8757-.663-.2314-.2838-.4058-.61-.5233-.9791s-.1765-.7608-.1765-1.1742c0-.4139.057-.8092.1704-1.1863s.2818-.7119.5052-1.0038c.2228-.2919.5047-.5233.8455-.6937s.7381-.2556,1.1923-.2556c.4623,0,.8616.0792,1.1984.2375.3363.1583.6125.3751.8273.6509.2153.2758.3751.5843.4805.9246.1054.3408.1583.6937.1583,1.0587,0,.0323-.002.1074-.006.2249-.004.118-.0141.2213-.0302.3106h-4.3195c.0247.5838.1951,1.038.5112,1.3627.3161.3242.7461.4865,1.2896.4865.3489,0,.6529-.057.9125-.1704s.5026-.2959.73-.5475l.7179.6327c-.2188.2354-.4502.428-.6937.5778-.243.1502-.5006.2617-.7724.3348s-.5742.1094-.9065.1094ZM86.3614,43.8573c.0161-.065.0262-.1296.0302-.1946s.006-.1296.006-.1946c0-.1946-.0343-.3897-.1034-.5843s-.1704-.3711-.304-.5289c-.1341-.1583-.3045-.2838-.5112-.3776-.2067-.0928-.4522-.1396-.7361-.1396-.3489,0-.6488.0812-.9004.2435s-.4462.3771-.5838.6448c-.1381.2677-.2188.5636-.2435.8878h3.6868l-.3408.2435Z"/>
    <path d="M90.8387,47.1665c-.4053,0-.7703-.061-1.095-.1825-.3242-.1215-.602-.2838-.8334-.4865-.2309-.2027-.4159-.4179-.5536-.6448l.7179-.6085c.1538.3085.3832.5616.6872.7603.3045.1991.6675.2985,1.089.2985.3811,0,.6856-.0812.9125-.2435.2274-.1623.3408-.3811.3408-.6569,0-.2269-.0691-.4053-.2067-.5354-.1381-.1296-.3206-.2349-.5475-.3161-.2274-.0812-.4744-.1543-.7421-.2193-.2274-.0565-.4563-.1255-.6877-.2067-.2309-.0812-.4401-.1825-.6267-.304-.1865-.122-.3363-.2803-.4502-.4749-.1134-.1946-.1699-.4336-.1699-.7174,0-.4951.1926-.8944.5778-1.1989.3852-.304.8898-.4563,1.5145-.4563.4542,0,.8702.0958,1.2473.2864s.671.4764.8823.8576l-.6574.4865c-.1623-.2838-.3751-.4885-.6383-.6141-.2642-.126-.5541-.1886-.8702-.1886s-.5798.0645-.791.1946c-.2107.1296-.3161.308-.3161.5349,0,.1704.0484.3085.1462.4139.0973.1054.241.1946.4316.2677s.424.1422.6998.2067c.2511.057.5067.126.7663.2067.2596.0812.4991.187.7179.3166s.3953.302.5294.5173c.1336.2148.2007.4926.2007.8334,0,.3731-.0933.7013-.2798.9851-.1865.2843-.4502.5031-.791.6574-.3403.1538-.7421.2309-1.2044.2309Z"/>
    <path d="M97.2137,47.1665c-.5596,0-1.0602-.1316-1.5024-.3953s-.789-.6307-1.0401-1.1011c-.2516-.4704-.3771-1.0058-.3771-1.6062,0-.5999.1235-1.1333.3711-1.5997.247-.4663.5919-.8313,1.034-1.095s.9468-.3958,1.5145-.3958,1.0688.1321,1.5029.3958c.4336.2637.7764.6287,1.028,1.095.2511.4663.3771.9997.3771,1.5997,0,.6004-.126,1.1338-.3771,1.6002-.2516.4663-.5964.8334-1.034,1.1011-.4381.2677-.9372.4013-1.4968.4013ZM97.2137,46.254c.3811,0,.7119-.0913.9917-.2738s.4966-.4381.6509-.7663c.1543-.3287.2314-.7119.2314-1.15,0-.4457-.0771-.8334-.2314-1.1616-.1543-.3287-.3711-.5823-.6509-.7608-.2798-.178-.6105-.2677-.9917-.2677-.3892,0-.726.0913-1.0098.2738s-.5026.4361-.6569.7608c-.1543.3242-.2309.7098-.2309,1.1555,0,.4381.0766.8213.2309,1.15.1543.3282.3731.5838.6569.7663s.6206.2738,1.0098.2738Z"/>
    <path d="M101.5937,47.0692v-5.9979h1.034v1.6057l-.2677.061c.0565-.3569.1926-.667.4074-.9307s.4663-.4689.7547-.6146c.2874-.1462.5697-.2193.8455-.2193.1865,0,.365.0207.5354.061.1704.0408.3443.1094.5228.2067l-.5107.9246c-.0973-.0484-.2133-.0887-.3469-.1215-.1336-.0323-.2617-.0484-.3832-.0484-.1946,0-.3877.0363-.5778.1094-.1911.0731-.3635.1865-.5173.3408-.1543.1538-.2717.361-.3529.6201-.0323.1139-.059.2617-.0792.4442s-.0302.4321-.0302.7482v2.8106h-1.034Z"/>
    <path d="M105.7907,41.874v-.8026h3.6742v.8026h-3.6742ZM108.5404,47.1665c-.2838,0-.5415-.055-.7724-.1644-.2314-.1094-.4119-.2859-.5415-.5294-.1301-.243-.1946-.5551-.1946-.9367v-6.071l1.0461-.5838v6.3871c0,.3327.0529.5904.1583.7729s.2959.2738.5717.2738c.0812,0,.1785-.0101.2919-.0308.1139-.0202.2354-.0464.365-.0786v.8026c-.1538.057-.3101.0973-.4684.122-.1578.0242-.3101.0363-.4563.0363Z"/>
  </g>
</svg>