<?xml version="1.0" encoding="UTF-8"?>
<svg id="Layer_1" xmlns="http://www.w3.org/2000/svg" width=".349in" height=".349in" viewBox="0 0 25.134 25.134">
  <defs>
    <style>
      .cls-1 {
        fill: #27aae1;
      }
    </style>
  </defs>
  <path class="cls-1" d="M23.452,15.492l-2.65.74-3.2-1.85v-3.63l3.2-1.84,2.65.74.54-1.93-2.11-.59.56-2.08-1.93-.52-.71,2.64-3.2,1.85-3.04-1.75v-3.69l1.97-1.93-1.4-1.43-1.56,1.53-1.52-1.52-1.42,1.41,1.93,1.93v3.7l-3.04,1.76-3.19-1.85-.7-2.64-1.94.52.56,2.08-2.11.59.54,1.93,2.64-.74h.01l3.2,1.84v3.61l-3.2,1.85-2.65-.74-.54,1.92,2.11.59-.56,2.08,1.94.52.7-2.64,3.3-1.9,2.93,1.69v3.82l-1.93,1.93,1.42,1.41,1.52-1.52,1.56,1.53,1.4-1.43-1.97-1.93v-3.81l2.93-1.69,3.31,1.91.71,2.64,1.93-.52-.56-2.08,2.11-.59-.54-1.92ZM15.602,14.262l-3.04,1.75-3.03-1.75v-3.51l3.03-1.75,3.04,1.75v3.51Z"/>
</svg>