<?xml version="1.0" encoding="UTF-8"?>
<svg id="Layer_1" xmlns="http://www.w3.org/2000/svg" width="1.866in" height="1.866in" viewBox="0 0 134.328 134.328">
  <defs>
    <style>
      .cls-1 {
        fill: #27aae1;
      }
    </style>
  </defs>
  <path class="cls-1" d="M67.165,127.694c-33.377,0-60.53-27.153-60.53-60.53S33.788,6.634,67.165,6.634s60.529,27.154,60.529,60.53-27.153,60.53-60.529,60.53ZM67.165,11.634c-30.619,0-55.53,24.911-55.53,55.53s24.911,55.53,55.53,55.53,55.529-24.911,55.529-55.53S97.784,11.634,67.165,11.634Z"/>
  <path class="cls-1" d="M103.215,45.946c-18.84-1.87-31.4,1.33-37.33,9.52-5.94,8.18-3.25,18.59-1.89,22.53-.81,1.5-1.47,2.92-2,4.21-.99-2.07-2.26-4.46-3.84-6.89.97-3.01,2.47-9.83-1.5-15.3-4.13-5.7-12.72-7.94-25.54-6.67l-2.28.23.03,2.29c0,.65.28,16.14,9.51,22.18,2.39,1.57,5.11,2.35,8.15,2.35,2.44,0,5.09-.51,7.93-1.54,3.11,5.01,4.87,9.73,5.34,11.05v8.8h5v-8.95c.18-.82.95-4.04,2.99-8.12,4.44,1.68,8.55,2.52,12.33,2.52,4.33,0,8.21-1.11,11.6-3.33,13.34-8.74,13.74-31.41,13.75-32.37l.03-2.29-2.28-.22ZM41.115,73.866c-5.21-3.41-6.68-11.68-7.1-15.74,9.44-.61,15.83,1.04,18.58,4.8,1.58,2.16,1.81,4.81,1.6,7.07-3.02-3.5-6.74-6.65-11.2-8.56l-1.96,4.6c4.2,1.79,7.67,5.02,10.44,8.55-4.21,1.26-7.69,1.03-10.36-.72ZM88.975,76.646c-4.77,3.12-11.03,3.32-18.65.59,3.47-5.24,8.98-10.93,17.58-14.61l-1.97-4.6c-8.53,3.65-14.35,9-18.28,14.25-.75-3.99-.9-9.52,2.29-13.9,4.53-6.22,15.01-8.86,30.4-7.67-.45,5.64-2.45,20.1-11.37,25.94Z"/>
</svg>