<?xml version="1.0" encoding="UTF-8"?>
<svg id="Layer_1" xmlns="http://www.w3.org/2000/svg" width="1.866in" height="1.866in" viewBox="0 0 134.328 134.328">
  <defs>
    <style>
      .cls-1 {
        fill: #27aae1;
      }
    </style>
  </defs>
  <path class="cls-1" d="M100.17,76.033l-8.035,2.244-9.703-5.61v-11.007l9.703-5.579,8.035,2.244,1.638-5.852-6.398-1.789,1.698-6.307-5.852-1.577-2.153,8.005-9.703,5.61-9.218-5.306v-11.189l5.974-5.852-4.245-4.336-4.73,4.639-4.609-4.609-4.306,4.275,5.852,5.852v11.219l-9.218,5.337-9.673-5.61-2.123-8.005-5.883,1.577,1.698,6.307-6.398,1.789,1.638,5.852,8.005-2.244h.03l9.703,5.579v10.946l-9.703,5.61-8.035-2.244-1.638,5.822,6.398,1.789-1.698,6.307,5.883,1.577,2.123-8.005,10.006-5.761,8.884,5.124v11.583l-5.852,5.852,4.306,4.276,4.609-4.609,4.73,4.639,4.245-4.336-5.974-5.852v-11.553l8.885-5.124,10.037,5.792,2.153,8.005,5.852-1.577-1.698-6.307,6.398-1.789-1.638-5.822ZM76.367,72.304l-9.218,5.306-9.188-5.306v-10.643l9.188-5.306,9.218,5.306v10.643Z"/>
  <path class="cls-1" d="M67.164,127.694c-33.376,0-60.529-27.153-60.529-60.53S33.788,6.634,67.164,6.634s60.53,27.154,60.53,60.53-27.153,60.53-60.53,60.53ZM67.164,11.634c-30.619,0-55.529,24.911-55.529,55.53s24.91,55.53,55.529,55.53,55.53-24.911,55.53-55.53S97.783,11.634,67.164,11.634Z"/>
</svg>