<?xml version="1.0" encoding="UTF-8"?>
<svg id="Layer_1" xmlns="http://www.w3.org/2000/svg" width="1.866in" height="1.866in" viewBox="0 0 134.328 134.328">
  <defs>
    <style>
      .cls-1 {
        fill: #27aae1;
      }
    </style>
  </defs>
  <path class="cls-1" d="M67.165,127.694c-33.377,0-60.53-27.153-60.53-60.53S33.788,6.634,67.165,6.634s60.529,27.154,60.529,60.53-27.153,60.53-60.529,60.53ZM67.165,11.634c-30.619,0-55.53,24.911-55.53,55.53s24.911,55.53,55.53,55.53,55.529-24.911,55.529-55.53S97.784,11.634,67.165,11.634Z"/>
  <g>
    <path class="cls-1" d="M106.637,71.336l-15.07-4.53,5.62-8.01-13.14,2.4,14.1-14.57h-15.34l-.62-15.94-12.12,10.6-9.4-9.15-1.74,18.53-8.57-11.95-1.78,10.82-12.92-6.09,4.5,14.25-8.65.76,16.07,20.2-6.46,7.11h15.82c-7.14,13.74-17.25,12.62-17.94,12.53l-.39,2.39-.39,2.4c.12.02.77.11,1.81.11,4.12,0,14.34-1.54,21.44-15.62l11.91,12.25,1.19-10.58,23.52-2.95-5.34-7.95,13.89-7.01ZM70.177,84.906l-.47,4.18-7.95-8.18h-9.67l1.86-2.04-13.02-16.36,5.68-.5-2.98-9.44,8.7,4.1.92-5.6,9.3,12.99,2-21.37,5.35,5.19,7.84-6.85.41,10.45h8.56l-16.66,17.22,16.37-3-2.69,3.83,9.86,2.96-7.93,4,4.01,5.97-19.49,2.45Z"/>
    <path class="cls-1" d="M38.997,98.296l-.39,2.39.37-2.39h.02Z"/>
  </g>
</svg>